# xmcd
# Copyright (C) 1995-1998 Ti Kan
#
# Track frame offsets:
#       150
#       26526
#       44352
#       59058
#       75512
#       92880
#       110892
#       127323
#       145423
#       162862
#       180791
#       197841
#       215177
#
# Disc length: 3118 seconds
#
# Revision: 0
# Processed by: cddbd v1.5.2PL0 Copyright (c) Steve Scherf et al.
# Submitted via: CD-Transfer v1.0
#
DISCID=c40c2c0d
DTITLE=Carneval-Various - Carnevale
DYEAR=10
DGENRE=
TTITLE0=Los Rios - Medley
TTITLE1=El Gato Dj - Mueve La Colita
TTITLE2=Club Maracaibo Maracaibo 09
TTITLE3=Valentina Ponzone Asereje
TTITLE4=Los Locos - La Vuelta
TTITLE5=Mexcal . Que Te La Pobgo
TTITLE6=Gibson Brothers - Cuba
TTITLE7=Sabrina Salerno . Boys
TTITLE8=Heather Parisi Cicale
TTITLE9=Ydalia Suarez - Corazon
TTITLE10=La Familia Loca De La Noche A La Manana
TTITLE11=Marcello Cirillo La Vida Es Un Carneval
TTITLE12=De-Phazz - The Mambo Craze
EXTD=
EXTT0=
EXTT1=
EXTT2=
EXTT3=
EXTT4=
EXTT5=
EXTT6=
EXTT7=
EXTT8=
EXTT9=
EXTT10=
EXTT11=
EXTT12=
PLAYORDER=
